<svg viewBox="0 0 64 64" xmlns="http://www.w3.org/2000/svg"><g fill="none" stroke-linecap="round" stroke-linejoin="round" stroke-width="8"><path d="M33 16c3-9 16-5 14 4-1 6-8 8-14 5" stroke="#ffcf28"/><path d="M44 25c10 1 10 15 1 17-6 2-11-4-12-10" stroke="#78cf3e"/><path d="M36 40c4 9-8 16-14 9-4-5-1-12 5-16" stroke="#22b9ee"/><path d="M21 39c-10 2-15-11-7-16 5-4 12 0 15 6" stroke="#2584e8"/><path d="M20 23c-7-7 2-18 10-13 5 3 5 11 1 16" stroke="#ff4f4f"/></g><circle cx="32" cy="32" fill="#101014" r="5"/></svg>
