<svg enable-background="new 0 0 1024.08 1024.08" viewBox="0 0 1024.08 1024.08" xmlns="http://www.w3.org/2000/svg"><g fill="none" stroke="#000" stroke-miterlimit="10"><path d="m369.81 358.95 65.29 61.28 9.86 10.83s10.45 17.75 15.42 36.83c5.36 20.56.36 54.28-14.1 72.28-12.86 16-23.22 28.43-42.7 48.65-19.34 20.08-46.64 14.41-52.04 14.86s-23.06-7.57-51.3-29.7-34.65-30.6-39.6-38.7-16.65-28.35-18-37.35-4.05-31.5 0-40.95 13.05-27.9 25.2-44.1 24.05-29.7 40.65-47.55c4.59-4.94 20.77-15.63 31.2-16.2 8.26-.44 14.68-3.81 30.12 9.82z"/><path d="m292.9 771.09c-1.2 4.2 7.8 63 21.3 77.7s13.5 18 32.4 21 42.3 3.6 55.8 1.5 25.8-9.6 23.1-17.4-3.3-15.6-16.5-24.6-27.9-19.2-45.3-30.9-36-31.35-43.8-34.65-13.95-5.7-20.55-.75c-6.6 4.94-5.25 3.9-6.45 8.1z"/><path d="m578.2 732.16c-9.75 6.3-27.07 26.78-31.8 38.48-2.65 6.57-5.13 15.6-5.25 17.7-.09 1.53-.04 4.31.88 7.64 1.91 6.87 6.4 10.89 9.41 13.94 8.42 8.52 4.9 9.11 15.35 21.56 7.65 9.11 14.27 14.43 20.86 19.72 9.94 7.98 13.75 9.3 16.84 9.87 6.81 1.25 12.37-1.35 16.76-2.37 14.85-3.45 49.46-30.32 50.25-36.45 2.55-19.8-4.05-33.68-6.15-40.95-2.15-7.44-10.95-30.67-16.12-35.62s-15.5-20.6-27-25.99c-10.58-4.95-13.65-3.96-27.19 2.64-.96.45-7.09 3.53-16.84 9.83z"/><path d="m573.4 451.96c18.25 3.56 36.56 23.14 36.56 23.14.91.98 6.55 7.1 11.14 16.39 2.49 5.04 3.46 8.56 2.2 11.84-.77 2.02-2.19 3.42-4.3 4.96-5.87 4.29-11.96 5.88-17.25 7.09-9.45 2.16-15.28 3.49-24.08 3.94-8.98.46-13.56.65-18.11-1.58-7.31-3.56-10.57-10.18-11.36-11.85-4-8.42-2.15-16.54-.67-23.02 1.17-5.14 3.47-9.51 8.07-18.23 1.05-2 3.23-6.02 7.31-9.44 2.51-2.11 4.67-3.1 6.9-3.38-.01-.01 1.72-.23 3.59.14z"/><path d="m614.65 598.28c3.26-6.92 7.3-11.14 12-16.05 5-5.23 8.51-8.89 14.1-12.15 7.22-4.21 14.26-5.21 28.35-7.2 7.24-1.03 12.88-1.79 20.58-1.45 8.25.37 14.4 1.82 17.82 2.65 35.19 8.5 52.79 12.75 65.46 22.44 7.82 5.98 17.68 13.52 18.47 25.26.77 11.45-7.51 20.73-8.1 21.38-4.75 5.18-6.67 3.4-15.08 9.9-9.92 7.67-8.28 10.94-17.55 17.1-6.05 4.02-8.31 3.66-13.33 8.26-4.48 4.11-4.62 6.18-8.68 10.63-4.73 5.2-9.38 7.69-16.47 11.48-10.98 5.88-20.45 8.22-23.45 8.91-7.03 1.62-16.67 3.84-28.98 1.89-6.69-1.06-16.41-2.6-24.41-10.12-3.71-3.49-5.57-6.87-9.22-13.5-2.75-5-5.79-11.43-8.89-20.93-4.68-14.35-8.54-26.2-6.97-41.4.44-4.29 1.11-10.22 4.35-17.1z"/><path d="m853.98 567.01c-3.22-5.13-4.85-9.15-7.42-15.53-2.87-7.09-4.29-10.69-3.78-13.26 1.13-5.66 6.65-10.06 11.97-11.36 4.69-1.14 8.71.53 16.55 3.92 27.24 11.78 29.94 13.55 33.19 16.99 3.77 3.99 8.53 9.03 8.99 16.56.49 7.99-4.16 14.12-7.08 17.97-2.52 3.33-6.94 9.14-15.08 11.47-2.09.6-7.73 2.21-13.72 0-2.47-.91-4.43-2.26-15.75-16.42-4.27-5.33-6.43-8.05-7.87-10.34z"/><path d="m125.8 357.68c-5.6-.14-9.6-4.05-10.76-5.18-5.71-5.58-6.56-13.24-6.94-17.32-3.42-36.51-5.13-54.76 4.59-74.78 6.94-14.3 15.76-23.02 21.81-29.02 7.65-7.57 21.4-15.14 48.9-30.3 2.8-1.54 10.08-5.45 19.8-5.7 4.18-.11 10.41-.17 14.7 4.2 3.22 3.29 3.76 7.47 3.9 8.7.98 8.53-5.08 15.78-6.9 18-22.12 26.91-56.36 68.58-62.7 98.7-.38 1.79-2.42 11.92-9.9 21.6-3.37 4.37-8.88 11.29-16.5 11.1z"/><path d="m79.17 486.08c2.91.13 9.73 2.56 19.94 39 4.74 16.91 3.11 15.82 9.9 46.2 3.79 16.95 12.55 63.08 9 67.5-3.94 4.91-13.36 4.36-19.5 2.4-10.83-3.46-16.53-12.93-24.9-27.3-4.27-7.34-8.73-14.98-12.6-27-12.66-39.3-5.05-81.93 11.4-97.5 1.85-1.76 4.09-3.41 6.76-3.3z"/><path d="m616 162.99c-7.7 17.76-58.9 8.62-63.3 7.8-23.62-4.4-53.99-17.07-54.42-31.05-.02-.51.03-1.09.12-2.25.22-2.76 1.39-14.17 8.85-24.3.85-1.15 11.62-15.5 29.92-17.55 16.32-1.83 28.67 6.86 40.27 15.3 2.8 2.02 46.42 33.92 38.56 52.05z"/><path d="m591.82 99.88c-1.41 1.33-3.08 3.37-3.57 6.1-1.47 8.24 8.92 16.4 13.95 20.25 42.12 32.28 63.18 48.41 87.53 58.05 0 0 33.56 13.28 92.17 16.2 6.37.32 19.01.71 23.76-6.6 2.89-4.44 1.84-10.15-1.86-21.9-5.96-18.97-8.94-28.46-14.85-38.55-32.45-55.44-86.4-67.95-86.4-67.95-9.65-2.24-48.7-11.29-84.6 10.8-12.63 7.78-21.06 17.06-26.13 23.6z"/><path d="m735.85 368.56c-4.54 3.04-4.92 10.74-5.25 17.17-.4 7.88 1.71 13.96 3 17.55 1.98 5.51 3.26 6.31 7.42 14.1 8.24 15.4 6.57 18.52 12.38 24.3 2.15 2.14 8.75 8.72 16.65 7.8 7.77-.9 12.35-8.55 17.1-16.5 4.73-7.9 9.55-15.97 7.65-25.05-.68-3.24-2.55-8.2-17.85-19.8-16.34-12.38-32.99-25.01-41.1-19.57z"/><path d="m709.3 256.89c5.54-20.93 49.3-34.56 82.2-22.2 29.59 11.11 42.63 40.32 45.9 48.6 4.34 10.99 5.29 20.01 6 27.3.37 3.83 5.48 61.23-17.1 70.8-15.29 6.48-36.19-11.98-57.6-30.9-21.72-19.19-32.65-37.64-45.9-60-15.14-25.57-14.11-31.31-13.5-33.6z"/><path d="m879.85 277.43c-7.16 5.31-2.48 22.94-.45 30.6 4.78 17.99 11 17.05 21.15 40.95 5.85 13.77 6.81 21.2 14.85 26.1 1.02.62 10.4 6.17 18 2.7 14.69-6.72 17.77-44.93 1.8-68.85-5.22-7.83-11.37-12.45-17.55-17.1-4.05-3.04-28.4-21.36-37.8-14.4z"/><path d="m408.7 181.58c.16 11.03-31.7 20.73-56.39 22.38-11.32.76-18.21 1.12-21.31-3.18-6.64-9.21 6.45-36.41 25.2-41.1 6.6-1.65 12.69-.2 22.93 2.23 13.16 3.13 19.3 7.9 20.87 9.17 5.39 4.36 8.65 7 8.7 10.5z"/><path d="m462.26 402.98c-13.74-6.18-14.2-31.77-14.4-43.2-.22-12.02-.27-25.63 8.78-37.8 2.75-3.7 8.82-11.86 18.23-12.83 4.72-.48 11.33.74 22.72 11.25 5.93 5.47 40.48 37.36 29.49 60.57-5.32 11.24-19.39 16.39-26.11 18.85-9.29 3.4-17.97 3.82-22.72 4.05-8.44.42-12.64.62-15.99-.89z"/><path d="m156.7 560.26c2.52.03 5.23 1.97 11.86 13.5 4.47 7.77 6.75 11.74 9.52 18.9 2.89 7.45 7.17 18.8 7.2 33.53.02 7.78-.05 13.56-4.05 16.65-3.66 2.83-8.63 1.88-16.65.22-10.65-2.19-16.68-3.44-21.94-8.71-7.28-7.3-8.05-17.25-8.66-25.27-.25-3.26-.42-9.22 1.12-16.43 2.8-13.04 9.28-21.02 13.5-26.1 4.96-5.95 6.97-6.3 8.1-6.29z"/></g></svg>