<?xml version="1.0" encoding="utf-8"?>
<!-- Generator: Adobe Illustrator 28.0.0, SVG Export Plug-In . SVG Version: 6.00 Build 0)  -->
<svg version="1.1" id="Слой_4" xmlns="http://www.w3.org/2000/svg" xmlns:xlink="http://www.w3.org/1999/xlink" x="0px" y="0px"
	 viewBox="0 0 1024.08 1024.08" style="enable-background:new 0 0 1024.08 1024.08;" xml:space="preserve">
<style type="text/css">
	.st0{fill:none;stroke:#000000;stroke-miterlimit:10;}
</style>
<path class="st0" d="M122.5,356.18c-3.3,7.34-27.9,72.9-33.3,89.1c-5.4,16.2-4.5,44.1-4.5,48.6s-4.61,107.1-0.06,120.6
	c0.97,2.86,1.65,4.83,2.45,6.88c6.69,17.01,13.12,29.01,15.48,33.31c6.83,12.47,4.4,11.28,19.18,45
	c15.47,35.32,23.21,52.98,28.65,60.3c3.87,5.21,11.18,14.2,15.37,28.29c2.26,7.6,1.09,8.21,3.53,14.91
	c0.97,2.66,6.14,16.29,19.8,27.3c6.74,5.44,10.75,6.37,17.1,9.9c22.53,12.53,13.64,33.95,38.7,42.3c8.1,2.7,19.8,11.7,45.9,22.5
	c8.11,3.35,12.83,5.75,16.4,7.87c5.52,3.27,5.7,3.87,10.95,7.08c2.74,1.67,13.22,7.93,28.1,12.57c5.33,1.66,9.05,2.82,14.31,3.53
	c12.7,1.72,16.82-1.57,26.55-1.58c16.5-0.02,17.21,9.41,40.28,13.73c8.19,1.53,5.71-0.1,24.52,2.02c13.81,1.56,18.79,2.86,28.8,2.7
	c8.84-0.14,9.89-1.22,18.45-1.8c15.36-1.04,18.37,2.02,37.35,3.38c18.39,1.31,32.5-0.35,39.9-1.5c4.76-0.74,9.55-1.5,14.76-2.92
	c3.11-0.85,6.36-1.93,9.84-3.38c12.35-5.15,13.79-9.22,22.2-13.5c25.57-13.02,45.73,7.52,72.3-6.6c5.22-2.77,5.85-4.31,13.25-7.95
	c13.38-6.58,20.21-5.93,32.35-10.95c3.6-1.49,5.16-2.44,21-12.6c23.58-15.12,35.4-22.71,37.2-24.3c7.67-6.77,12.52-21.75,25.8-39.3
	c14.7-19.42,22.12-20.55,34.05-38.78c11.93-18.22,22.73-47.02,32.62-60.97c9.9-13.95,11.03-50.25,31.73-68.85
	c20.7-18.6,15.9-8.1,29.1-35.7c13.2-27.6,6.9-48.9,9.15-63.75c2.25-14.85,2.7-39.15,0-68.85c-2.7-29.7-19.35-64.8-18-83.25
	c1.35-18.45-3.15-28.8-6.3-30.6c-3.15-1.8-10.05-21.75-22.65-41.85s-12.6-45.9-42-77.7s-38.4-43.5-59.1-58.2
	c-20.7-14.7-20.7-14.7-20.7-14.7s-45-31.2-108.23-55.95s-69.3-29.25-99.9-33.75c-30.6-4.5-73.88-9-114.38-6s-44.7,3.3-55.2,6
	c-10.5,2.7-32.4,12.9-58.8,29.7c-26.4,16.8-53.1,21.3-75.3,36.9c-22.2,15.6-24.3,12.9-48.9,29.4s-14.7,28.2-36.3,46.8
	S123.49,353.99,122.5,356.18z"/>
</svg>
