<?xml version="1.0" encoding="utf-8"?>
<!-- Generator: Adobe Illustrator 28.0.0, SVG Export Plug-In . SVG Version: 6.00 Build 0)  -->
<svg version="1.1" id="Слой_6" xmlns="http://www.w3.org/2000/svg" xmlns:xlink="http://www.w3.org/1999/xlink" x="0px" y="0px"
	 viewBox="0 0 1024.08 1024.08" style="enable-background:new 0 0 1024.08 1024.08;" xml:space="preserve">
<style type="text/css">
	.st0{fill:none;stroke:#000000;stroke-miterlimit:10;}
</style>
<path class="st0" d="M369.81,358.95l65.29,61.28l9.86,10.83c0,0,10.45,17.75,15.42,36.83c5.36,20.56,0.36,54.28-14.1,72.28
	c-12.86,16-23.22,28.43-42.7,48.65c-19.34,20.08-46.64,14.41-52.04,14.86s-23.06-7.57-51.3-29.7c-28.24-22.13-34.65-30.6-39.6-38.7
	c-4.95-8.1-16.65-28.35-18-37.35c-1.35-9-4.05-31.5,0-40.95c4.05-9.45,13.05-27.9,25.2-44.1c12.15-16.2,24.05-29.7,40.65-47.55
	c4.59-4.94,20.77-15.63,31.2-16.2C347.95,348.69,354.37,345.32,369.81,358.95z"/>
<path class="st0" d="M292.9,771.09c-1.2,4.2,7.8,63,21.3,77.7c13.5,14.7,13.5,18,32.4,21c18.9,3,42.3,3.6,55.8,1.5
	c13.5-2.1,25.8-9.6,23.1-17.4c-2.7-7.8-3.3-15.6-16.5-24.6c-13.2-9-27.9-19.2-45.3-30.9s-36-31.35-43.8-34.65
	c-7.8-3.3-13.95-5.7-20.55-0.75C292.75,767.93,294.1,766.89,292.9,771.09z"/>
<path class="st0" d="M578.2,732.16c-9.75,6.3-27.07,26.78-31.8,38.48c-2.65,6.57-5.13,15.6-5.25,17.7
	c-0.09,1.53-0.04,4.31,0.88,7.64c1.91,6.87,6.4,10.89,9.41,13.94c8.42,8.52,4.9,9.11,15.35,21.56c7.65,9.11,14.27,14.43,20.86,19.72
	c9.94,7.98,13.75,9.3,16.84,9.87c6.81,1.25,12.37-1.35,16.76-2.37c14.85-3.45,49.46-30.32,50.25-36.45
	c2.55-19.8-4.05-33.68-6.15-40.95c-2.15-7.44-10.95-30.67-16.12-35.62c-5.17-4.95-15.5-20.6-27-25.99
	c-10.58-4.95-13.65-3.96-27.19,2.64C594.08,722.78,587.95,725.86,578.2,732.16z"/>
<path class="st0" d="M573.4,451.96c18.25,3.56,36.56,23.14,36.56,23.14c0.91,0.98,6.55,7.1,11.14,16.39
	c2.49,5.04,3.46,8.56,2.2,11.84c-0.77,2.02-2.19,3.42-4.3,4.96c-5.87,4.29-11.96,5.88-17.25,7.09c-9.45,2.16-15.28,3.49-24.08,3.94
	c-8.98,0.46-13.56,0.65-18.11-1.58c-7.31-3.56-10.57-10.18-11.36-11.85c-4-8.42-2.15-16.54-0.67-23.02
	c1.17-5.14,3.47-9.51,8.07-18.23c1.05-2,3.23-6.02,7.31-9.44c2.51-2.11,4.67-3.1,6.9-3.38C569.8,451.81,571.53,451.59,573.4,451.96z
	"/>
<path class="st0" d="M614.65,598.28c3.26-6.92,7.3-11.14,12-16.05c5-5.23,8.51-8.89,14.1-12.15c7.22-4.21,14.26-5.21,28.35-7.2
	c7.24-1.03,12.88-1.79,20.58-1.45c8.25,0.37,14.4,1.82,17.82,2.65c35.19,8.5,52.79,12.75,65.46,22.44
	c7.82,5.98,17.68,13.52,18.47,25.26c0.77,11.45-7.51,20.73-8.1,21.38c-4.75,5.18-6.67,3.4-15.08,9.9
	c-9.92,7.67-8.28,10.94-17.55,17.1c-6.05,4.02-8.31,3.66-13.33,8.26c-4.48,4.11-4.62,6.18-8.68,10.63
	c-4.73,5.2-9.38,7.69-16.47,11.48c-10.98,5.88-20.45,8.22-23.45,8.91c-7.03,1.62-16.67,3.84-28.98,1.89
	c-6.69-1.06-16.41-2.6-24.41-10.12c-3.71-3.49-5.57-6.87-9.22-13.5c-2.75-5-5.79-11.43-8.89-20.93c-4.68-14.35-8.54-26.2-6.97-41.4
	C610.74,611.09,611.41,605.16,614.65,598.28z"/>
<path class="st0" d="M853.98,567.01c-3.22-5.13-4.85-9.15-7.42-15.53c-2.87-7.09-4.29-10.69-3.78-13.26
	c1.13-5.66,6.65-10.06,11.97-11.36c4.69-1.14,8.71,0.53,16.55,3.92c27.24,11.78,29.94,13.55,33.19,16.99
	c3.77,3.99,8.53,9.03,8.99,16.56c0.49,7.99-4.16,14.12-7.08,17.97c-2.52,3.33-6.94,9.14-15.08,11.47c-2.09,0.6-7.73,2.21-13.72,0
	c-2.47-0.91-4.43-2.26-15.75-16.42C857.58,572.02,855.42,569.3,853.98,567.01z"/>
<path class="st0" d="M125.8,357.68c-5.6-0.14-9.6-4.05-10.76-5.18c-5.71-5.58-6.56-13.24-6.94-17.32
	c-3.42-36.51-5.13-54.76,4.59-74.78c6.94-14.3,15.76-23.02,21.81-29.02c7.65-7.57,21.4-15.14,48.9-30.3
	c2.8-1.54,10.08-5.45,19.8-5.7c4.18-0.11,10.41-0.17,14.7,4.2c3.22,3.29,3.76,7.47,3.9,8.7c0.98,8.53-5.08,15.78-6.9,18
	c-22.12,26.91-56.36,68.58-62.7,98.7c-0.38,1.79-2.42,11.92-9.9,21.6C138.93,350.95,133.42,357.87,125.8,357.68z"/>
<path class="st0" d="M79.17,486.08c2.91,0.13,9.73,2.56,19.94,39c4.74,16.91,3.11,15.82,9.9,46.2c3.79,16.95,12.55,63.08,9,67.5
	c-3.94,4.91-13.36,4.36-19.5,2.4c-10.83-3.46-16.53-12.93-24.9-27.3c-4.27-7.34-8.73-14.98-12.6-27
	c-12.66-39.3-5.05-81.93,11.4-97.5C74.26,487.62,76.5,485.97,79.17,486.08z"/>
<path class="st0" d="M616,162.99c-7.7,17.76-58.9,8.62-63.3,7.8c-23.62-4.4-53.99-17.07-54.42-31.05c-0.02-0.51,0.03-1.09,0.12-2.25
	c0.22-2.76,1.39-14.17,8.85-24.3c0.85-1.15,11.62-15.5,29.92-17.55c16.32-1.83,28.67,6.86,40.27,15.3
	C580.24,112.96,623.86,144.86,616,162.99z"/>
<path class="st0" d="M591.82,99.88c-1.41,1.33-3.08,3.37-3.57,6.1c-1.47,8.24,8.92,16.4,13.95,20.25
	c42.12,32.28,63.18,48.41,87.53,58.05c0,0,33.56,13.28,92.17,16.2c6.37,0.32,19.01,0.71,23.76-6.6c2.89-4.44,1.84-10.15-1.86-21.9
	c-5.96-18.97-8.94-28.46-14.85-38.55c-32.45-55.44-86.4-67.95-86.4-67.95c-9.65-2.24-48.7-11.29-84.6,10.8
	C605.32,84.06,596.89,93.34,591.82,99.88z"/>
<path class="st0" d="M735.85,368.56c-4.54,3.04-4.92,10.74-5.25,17.17c-0.4,7.88,1.71,13.96,3,17.55c1.98,5.51,3.26,6.31,7.42,14.1
	c8.24,15.4,6.57,18.52,12.38,24.3c2.15,2.14,8.75,8.72,16.65,7.8c7.77-0.9,12.35-8.55,17.1-16.5c4.73-7.9,9.55-15.97,7.65-25.05
	c-0.68-3.24-2.55-8.2-17.85-19.8C760.61,375.75,743.96,363.12,735.85,368.56z"/>
<path class="st0" d="M709.3,256.89c5.54-20.93,49.3-34.56,82.2-22.2c29.59,11.11,42.63,40.32,45.9,48.6
	c4.34,10.99,5.29,20.01,6,27.3c0.37,3.83,5.48,61.23-17.1,70.8c-15.29,6.48-36.19-11.98-57.6-30.9c-21.72-19.19-32.65-37.64-45.9-60
	C707.66,264.92,708.69,259.18,709.3,256.89z"/>
<path class="st0" d="M879.85,277.43c-7.16,5.31-2.48,22.94-0.45,30.6c4.78,17.99,11,17.05,21.15,40.95
	c5.85,13.77,6.81,21.2,14.85,26.1c1.02,0.62,10.4,6.17,18,2.7c14.69-6.72,17.77-44.93,1.8-68.85c-5.22-7.83-11.37-12.45-17.55-17.1
	C913.6,288.79,889.25,270.47,879.85,277.43z"/>
<path class="st0" d="M408.7,181.58c0.16,11.03-31.7,20.73-56.39,22.38c-11.32,0.76-18.21,1.12-21.31-3.18
	c-6.64-9.21,6.45-36.41,25.2-41.1c6.6-1.65,12.69-0.2,22.93,2.23c13.16,3.13,19.3,7.9,20.87,9.17
	C405.39,175.44,408.65,178.08,408.7,181.58z"/>
<path class="st0" d="M462.26,402.98c-13.74-6.18-14.2-31.77-14.4-43.2c-0.22-12.02-0.27-25.63,8.78-37.8
	c2.75-3.7,8.82-11.86,18.23-12.83c4.72-0.48,11.33,0.74,22.72,11.25c5.93,5.47,40.48,37.36,29.49,60.57
	c-5.32,11.24-19.39,16.39-26.11,18.85c-9.29,3.4-17.97,3.82-22.72,4.05C469.81,404.29,465.61,404.49,462.26,402.98z"/>
<path class="st0" d="M156.7,560.26c2.52,0.03,5.23,1.97,11.86,13.5c4.47,7.77,6.75,11.74,9.52,18.9c2.89,7.45,7.17,18.8,7.2,33.53
	c0.02,7.78-0.05,13.56-4.05,16.65c-3.66,2.83-8.63,1.88-16.65,0.22c-10.65-2.19-16.68-3.44-21.94-8.71
	c-7.28-7.3-8.05-17.25-8.66-25.27c-0.25-3.26-0.42-9.22,1.12-16.43c2.8-13.04,9.28-21.02,13.5-26.1
	C153.56,560.6,155.57,560.25,156.7,560.26z"/>
</svg>
